<?xml version="1.0" encoding="utf-8"?>
<svg viewBox="154.069 154.069 191.862 191.862" width="191.862" height="191.862" xmlns="http://www.w3.org/2000/svg">
  <circle style="fill: rgb(255, 104, 107);" cx="250" cy="250" r="95.931"/>
  <path d="M 233.64 382.365 C 230.62 382.365 227.553 382.038 224.44 381.385 C 221.327 380.725 218.82 379.958 216.92 379.085 L 217.87 371.705 C 220.303 372.878 223.053 373.902 226.12 374.775 C 229.187 375.648 232.23 376.085 235.25 376.085 C 238.657 376.085 241.297 375.465 243.17 374.225 C 245.043 372.985 245.98 371.125 245.98 368.645 C 245.98 366.792 245.503 365.245 244.55 364.005 C 243.603 362.765 242.217 361.718 240.39 360.865 C 238.563 360.018 236.02 359.108 232.76 358.135 C 229.453 357.162 226.703 356.115 224.51 354.995 C 222.323 353.875 220.56 352.342 219.22 350.395 C 217.88 348.448 217.21 345.992 217.21 343.025 C 217.21 338.885 218.807 335.548 222 333.015 C 225.187 330.488 229.673 329.225 235.46 329.225 C 238.58 329.225 241.537 329.565 244.33 330.245 C 247.13 330.925 249.577 331.752 251.67 332.725 L 250.94 340.105 C 248.213 338.498 245.587 337.328 243.06 336.595 C 240.527 335.868 237.897 335.505 235.17 335.505 C 232.01 335.505 229.493 336.088 227.62 337.255 C 225.747 338.422 224.81 340.222 224.81 342.655 C 224.81 344.308 225.233 345.672 226.08 346.745 C 226.933 347.812 228.163 348.725 229.77 349.485 C 231.377 350.238 233.617 351.052 236.49 351.925 C 242.23 353.678 246.51 355.758 249.33 358.165 C 252.157 360.578 253.57 363.902 253.57 368.135 C 253.57 372.608 251.89 376.098 248.53 378.605 C 245.17 381.112 240.207 382.365 233.64 382.365 ZM 275.897 382.075 C 272.25 382.075 269.087 381.258 266.407 379.625 C 263.733 377.998 261.69 375.775 260.277 372.955 C 258.87 370.128 258.167 366.965 258.167 363.465 C 258.167 359.958 258.87 356.792 260.277 353.965 C 261.69 351.145 263.733 348.922 266.407 347.295 C 269.087 345.662 272.25 344.845 275.897 344.845 C 279.503 344.845 282.657 345.662 285.357 347.295 C 288.057 348.922 290.113 351.145 291.527 353.965 C 292.933 356.792 293.637 359.958 293.637 363.465 C 293.637 366.965 292.933 370.128 291.527 372.955 C 290.113 375.775 288.057 377.998 285.357 379.625 C 282.657 381.258 279.503 382.075 275.897 382.075 Z M 275.897 376.235 C 279.403 376.235 282.117 375.115 284.037 372.875 C 285.963 370.635 286.927 367.498 286.927 363.465 C 286.927 359.425 285.963 356.285 284.037 354.045 C 282.117 351.805 279.403 350.685 275.897 350.685 C 272.397 350.685 269.687 351.805 267.767 354.045 C 265.84 356.285 264.877 359.425 264.877 363.465 C 264.877 367.498 265.84 370.635 267.767 372.875 C 269.687 375.115 272.397 376.235 275.897 376.235 ZM 316.042 382.075 C 312.395 382.075 309.232 381.258 306.552 379.625 C 303.878 377.998 301.835 375.775 300.422 372.955 C 299.015 370.128 298.312 366.965 298.312 363.465 C 298.312 359.958 299.015 356.792 300.422 353.965 C 301.835 351.145 303.878 348.922 306.552 347.295 C 309.232 345.662 312.395 344.845 316.042 344.845 C 319.648 344.845 322.802 345.662 325.502 347.295 C 328.202 348.922 330.258 351.145 331.672 353.965 C 333.078 356.792 333.782 359.958 333.782 363.465 C 333.782 366.965 333.078 370.128 331.672 372.955 C 330.258 375.775 328.202 377.998 325.502 379.625 C 322.802 381.258 319.648 382.075 316.042 382.075 Z M 316.042 376.235 C 319.548 376.235 322.262 375.115 324.182 372.875 C 326.108 370.635 327.072 367.498 327.072 363.465 C 327.072 359.425 326.108 356.285 324.182 354.045 C 322.262 351.805 319.548 350.685 316.042 350.685 C 312.542 350.685 309.832 351.805 307.912 354.045 C 305.985 356.285 305.022 359.425 305.022 363.465 C 305.022 367.498 305.985 370.635 307.912 372.875 C 309.832 375.115 312.542 376.235 316.042 376.235 ZM 358.237 344.845 C 367.97 344.845 372.837 350.442 372.837 361.635 L 372.837 381.345 L 366.267 381.345 L 366.267 361.635 C 366.267 357.788 365.55 355.002 364.117 353.275 C 362.677 351.548 360.277 350.685 356.917 350.685 C 354.777 350.685 352.83 351.075 351.077 351.855 C 349.33 352.635 348.017 353.802 347.137 355.355 L 347.137 381.345 L 340.567 381.345 L 340.567 345.575 L 345.677 345.575 L 346.407 349.375 C 348.307 347.668 350.217 346.488 352.137 345.835 C 354.064 345.175 356.097 344.845 358.237 344.845 Z" transform="matrix(0.9268999695777893, -0.37530797719955444, 0.37530797719955444, 0.9268999695777893, -159.65676879882812, 27.371198654174805)" style="fill: rgb(255, 255, 255); white-space: pre;"/>
</svg>