<svg xmlns="http://www.w3.org/2000/svg" role="img" viewBox="150.16 150.16 199.42 199.42"><circle cx="250" cy="250" r="95.931" fill="#ff686b"/><path fill="#fff" d="M200.40931 294.09976c-2.79924 1.13342-5.76478 1.98137-8.8953 2.54442-3.13314.55656-5.74475.78651-7.8335.6904l-1.88917-7.19708c2.69538.17415 5.62867.09121 8.79912-.25065 3.17045-.34187 6.15502-1.07886 8.95427-2.21227 3.15795-1.27866 5.37229-2.84413 6.643-4.69643 1.27071-1.8523 1.44116-3.928.5104-6.22672-.69543-1.71755-1.71815-2.97245-3.06686-3.76414-1.34316-.79395-3.02078-1.24425-5.03437-1.34922-2.01133-.0994-4.70997.0115-8.09684.33311-3.43043.33925-6.37236.40087-8.8254.18577-2.44747-.21734-4.65693-.97662-6.6297-2.2784-1.97276-1.30177-3.51553-3.3268-4.62905-6.07691-1.55375-3.83738-1.32587-7.52981.68309-11.076 2.00565-3.53836 5.68972-6.39265 11.0537-8.56452 2.89194-1.17095 5.7604-1.96557 8.60444-2.3835 2.85053-.42055 5.42904-.57236 7.73421-.456l2.0931 7.11452c-3.13078-.46609-6.00393-.56502-8.6213-.29605-2.6207.27678-5.19468.92736-7.72235 1.95081-2.929 1.18596-5.04322 2.67098-6.34133 4.45561-1.29811 1.78464-1.49107 3.80472-.57796 6.05988.62037 1.53217 1.52436 2.6377 2.71215 3.3144 1.1911.66887 2.67384 1.0535 4.4486 1.15484 1.77213.09485 4.15389.00867 7.14452-.26039 5.97833-.52937 10.7261-.20771 14.24331.96499 3.52596 1.17564 6.08318 3.72636 7.67183 7.64994 1.67873 4.14603 1.43134 8.01143-.74217 11.59619-2.1735 3.58476-6.30347 6.6088-12.39044 9.0734zm39.05928-16.12795c-3.38041 1.36873-6.61883 1.79853-9.7158 1.2907-3.08915-.5045-5.8171-1.79826-8.18517-3.88183-2.36513-2.0923-4.20383-4.76025-5.51739-8.00441-1.31618-3.25065-1.85278-6.44906-1.6096-9.59746.25136-3.14417 1.31072-5.97142 3.17864-8.48305 1.87123-2.51944 4.4964-4.4638 7.87681-5.83253 3.34241-1.35334 6.57249-1.77976 9.688-1.27945 3.11325.49476 5.85325 1.78364 8.22225 3.86683 2.3642 2.09268 4.20495 4.76304 5.52113 8.01368 1.31356 3.24416 1.8481 6.44017 1.60586 9.5882-.25229 3.14454-1.3237 5.97666-3.21572 8.49805-1.88977 2.52695-4.5066 4.46793-7.84901 5.82127zm-2.19177-5.4131c3.24972-1.31582 5.345-3.37252 6.28397-6.16936.94454-2.7991.66075-6.06858-.85284-9.80678-1.51622-3.74468-3.5882-6.29337-6.2141-7.6468-2.62033-1.35568-5.55628-1.37524-8.806-.05943-3.24416 1.31356-5.33573 3.36876-6.2747 6.1656-.94546 2.79947-.65962 6.07136.8566 9.81605 1.5136 3.7382 3.58352 6.28447 6.21034 7.63753 2.62033 1.35568 5.55258 1.37674 8.79673.06318zm39.40227-9.65341c-3.38041 1.36873-6.61883 1.79853-9.7158 1.2907-3.08915-.5045-5.8171-1.79827-8.18517-3.88183-2.36514-2.0923-4.20383-4.76026-5.51739-8.00442-1.31618-3.25064-1.85278-6.44905-1.6096-9.59746.25136-3.14416 1.31072-5.97141 3.17864-8.48304 1.87123-2.51944 4.4964-4.4638 7.87681-5.83253 3.34241-1.35334 6.57249-1.77976 9.688-1.27945 3.11325.49476 5.85325 1.78364 8.22225 3.86683 2.3642 2.09267 4.20495 4.76303 5.52113 8.01368 1.31356 3.24416 1.8481 6.44016 1.60586 9.5882-.25229 3.14454-1.3237 5.97666-3.21572 8.49805-1.88977 2.52695-4.5066 4.46793-7.84901 5.82127zm-2.19177-5.41311c3.24972-1.31581 5.345-3.37251 6.28397-6.16935.94454-2.7991.66075-6.06858-.85284-9.80678-1.51622-3.74469-3.5882-6.29337-6.2141-7.6468-2.62033-1.35568-5.55628-1.37524-8.806-.05943-3.24416 1.31356-5.33573 3.36876-6.2747 6.1656-.94547 2.79947-.65962 6.07136.8566 9.81605 1.5136 3.7382 3.58352 6.28447 6.21034 7.63752 2.62033 1.35569 5.55258 1.37675 8.79673.06319zm27.32991-44.93135c9.02154-3.65282 15.63335-.29154 19.8341 10.08328l7.39721 18.26924-6.08975 2.46574-7.3972-18.26925c-1.4438-3.5658-3.15397-5.87905-5.13037-6.942-1.98289-1.06033-4.53134-.95952-7.64573.3015-1.98357.80314-3.64189 1.89535-4.97401 3.27624-1.32656 1.37864-2.1056 2.9531-2.33844 4.72285l9.75411 24.0902-6.08975 2.46573-13.42456-33.1553 4.73647-1.9178 2.10279 3.24826c1.12047-2.2953 2.448-4.10587 3.98258-5.43171 1.53844-1.33497 3.29898-2.40383 5.28255-3.20698z"/></svg>